<?xml version="1.0" encoding="UTF-8"?>
<svg xmlns="http://www.w3.org/2000/svg" viewBox="0 0 100 100">
  <!-- TV/Monitor Base -->
  <rect x="20" y="65" width="60" height="10" rx="2" fill="#444444"/>
  <rect x="45" y="75" width="10" height="5" fill="#444444"/>
  
  <!-- TV/Monitor Body -->
  <rect x="10" y="15" width="80" height="50" rx="5" fill="#222222" stroke="#444444" stroke-width="2"/>
  
  <!-- TV Screen -->
  <rect x="15" y="20" width="70" height="40" rx="2" fill="#1a1a1a"/>
  
  <!-- Channel Lines (representing content) -->
  <rect x="20" y="30" width="30" height="3" rx="1" fill="#3498db"/>
  <rect x="20" y="38" width="40" height="3" rx="1" fill="#3498db"/>
  <rect x="20" y="46" width="25" height="3" rx="1" fill="#3498db"/>
  
  <!-- Alert Triangle -->
  <g transform="translate(60, 35) scale(0.8)">
    <!-- Triangle -->
    <path d="M0,-15 L15,15 L-15,15 Z" fill="#e74c3c" stroke="#c0392b" stroke-width="2"/>
    
    <!-- Exclamation Mark -->
    <rect x="-2" y="-7" width="4" height="10" rx="1" fill="white"/>
    <circle cx="0" cy="8" r="2" fill="white"/>
  </g>
  
  <!-- Signal Waves (broadcasting) -->
  <path d="M5,50 Q10,45 15,50" stroke="#3498db" stroke-width="2" fill="none"/>
  <path d="M0,50 Q10,40 20,50" stroke="#3498db" stroke-width="2" fill="none"/>
  <path d="M-5,50 Q10,35 25,50" stroke="#3498db" stroke-width="2" fill="none"/>
</svg>
